<svg width="286" height="286" viewBox="0 0 286 286" fill="none" xmlns="http://www.w3.org/2000/svg">
<g clip-path="url(#clip0_63_90)">
<path d="M-3.05176e-05 6.10352e-05H142.85V142.85H-3.05176e-05V6.10352e-05Z" fill="#B081F5"/>
<path d="M285.7 142.851H142.85V0.000793457C221.746 0.000793457 285.7 63.9591 285.7 142.851Z" fill="#7498F6"/>
<path d="M0.00292969 142.851H142.853V285.701C63.9571 285.701 0.00292969 221.743 0.00292969 142.851Z" fill="#26045A"/>
<path d="M252.335 214.275C252.335 235.296 235.297 252.333 214.277 252.333C193.256 252.333 176.218 235.296 176.218 214.275C176.218 193.254 193.256 176.217 214.277 176.217C235.297 176.217 252.335 193.254 252.335 214.275Z" fill="#49B25E"/>
</g>
<defs>
<clipPath id="clip0_63_90">
<rect width="286" height="286" fill="white"/>
</clipPath>
</defs>
</svg>
